<?xml version="1.0" standalone="no"?>
<!DOCTYPE svg PUBLIC "-//W3C//DTD SVG 20010904//EN"
 "http://www.w3.org/TR/2001/REC-SVG-20010904/DTD/svg10.dtd">
<svg version="1.0" xmlns="http://www.w3.org/2000/svg"
 width="800.000000pt" height="800.000000pt" viewBox="0 0 800.000000 800.000000"
 preserveAspectRatio="xMidYMid meet">
<metadata>
Created by potrace 1.14, written by Peter Selinger 2001-2017
</metadata>
<g transform="translate(0.000000,800.000000) scale(0.100000,-0.100000)"
fill="#000000" stroke="none">
<path d="M0 4000 l0 -4000 4000 0 4000 0 0 4000 0 4000 -4000 0 -4000 0 0
-4000z m3550 623 l0 -1208 555 3 555 2 0 -85 0 -85 -650 0 -650 0 0 1290 0
1290 95 0 95 0 0 -1207z m2147 -1910 c-940 -2 -2474 -2 -3410 0 -936 1 -168 2
1708 2 1876 0 2641 -1 1702 -2z m-1483 -569 c14 -37 7 -54 -24 -54 -28 0 -30
3 -30 35 0 30 3 35 24 35 13 0 27 -7 30 -16z m-1414 -324 l0 -319 148 -3 c144
-3 147 -3 150 -25 l3 -23 -180 0 -181 0 0 345 0 345 30 0 30 0 0 -320z m1161
130 c60 -17 120 -100 88 -121 -24 -15 -34 -10 -46 20 -15 42 -56 65 -114 65
-87 0 -134 -57 -145 -175 -9 -92 10 -173 51 -218 32 -34 37 -36 94 -36 53 1
64 4 91 30 16 16 30 34 30 41 0 18 15 25 35 18 40 -16 -19 -104 -83 -125 -50
-16 -146 -7 -180 18 -68 50 -99 146 -88 272 14 168 120 252 267 211z m685 -9
c64 -29 96 -86 110 -198 l7 -53 -187 0 -186 0 0 -29 c0 -36 26 -110 46 -133
29 -31 98 -51 151 -43 38 5 56 15 86 47 31 32 42 39 58 32 19 -9 19 -10 -3
-40 -43 -61 -82 -79 -173 -79 -72 0 -86 3 -122 27 -56 37 -85 100 -91 199 -7
114 11 172 68 230 26 26 58 49 71 52 57 11 126 6 165 -12z m524 1 c21 -10 44
-34 60 -62 24 -43 25 -54 28 -238 l4 -194 -28 4 -29 3 -5 195 c-6 247 -12 260
-126 260 -52 0 -59 -3 -94 -37 -49 -49 -60 -103 -60 -283 l0 -140 -25 0 -25 0
0 250 c0 239 1 250 19 250 22 0 31 -19 31 -63 l0 -32 21 33 c43 66 153 93 229
54z m-1938 -186 c3 -179 5 -197 24 -223 50 -67 159 -62 218 10 l31 39 3 184 3
184 25 0 24 0 0 -212 c0 -117 3 -230 6 -250 6 -36 5 -38 -20 -38 -24 0 -26 3
-26 44 l0 43 -42 -42 c-48 -47 -97 -62 -170 -50 -53 9 -102 55 -117 110 -6 22
-11 120 -11 218 l0 177 24 0 24 0 4 -194z m978 182 c0 -5 0 -116 0 -248 l0
-240 -25 0 -25 0 0 251 0 250 25 -3 c14 -2 25 -6 25 -10z"/>
<path d="M4497 1906 c-55 -20 -75 -42 -92 -99 -24 -82 -34 -77 145 -77 l160 0
-6 33 c-12 60 -41 115 -71 130 -45 24 -94 28 -136 13z"/>
</g>
</svg>
